<?xml version="1.0" encoding="UTF-8" standalone="no"?>
<!-- Generator: Adobe Illustrator 13.0.0, SVG Export Plug-In . SVG Version: 6.00 Build 14948)  -->

<svg
   xmlns:dc="http://purl.org/dc/elements/1.1/"
   xmlns:cc="http://creativecommons.org/ns#"
   xmlns:rdf="http://www.w3.org/1999/02/22-rdf-syntax-ns#"
   xmlns:svg="http://www.w3.org/2000/svg"
   xmlns="http://www.w3.org/2000/svg"
   xmlns:sodipodi="http://sodipodi.sourceforge.net/DTD/sodipodi-0.dtd"
   xmlns:inkscape="http://www.inkscape.org/namespaces/inkscape"
   version="1.1"
   id="Layer_1"
   x="0px"
   y="0px"
   width="462"
   height="395.10565"
   viewBox="0 0 462 395.10565"
   enable-background="new 0 0 1024 768"
   xml:space="preserve"
   inkscape:version="0.48.3.1 r9886"
   sodipodi:docname="logo.svg"><metadata
   id="metadata3603"><rdf:RDF><cc:Work
       rdf:about=""><dc:format>image/svg+xml</dc:format><dc:type
         rdf:resource="http://purl.org/dc/dcmitype/StillImage" /></cc:Work></rdf:RDF></metadata><defs
   id="defs3601" /><sodipodi:namedview
   pagecolor="#ffffff"
   bordercolor="#666666"
   borderopacity="1"
   objecttolerance="10"
   gridtolerance="10"
   guidetolerance="10"
   inkscape:pageopacity="0"
   inkscape:pageshadow="2"
   inkscape:window-width="1374"
   inkscape:window-height="914"
   id="namedview3599"
   showgrid="false"
   fit-margin-top="0"
   fit-margin-left="0"
   fit-margin-right="0"
   fit-margin-bottom="0"
   inkscape:zoom="0.43457604"
   inkscape:cx="1053.1269"
   inkscape:cy="-234.08737"
   inkscape:window-x="218"
   inkscape:window-y="97"
   inkscape:window-maximized="0"
   inkscape:current-layer="Layer_1" />
<g
   id="g3559"
   transform="matrix(2.8306751,0,0,2.8306751,-952.72874,-805.32087)">
	<path
   d="m 402.81,301.248 v 82.826 c 6.367,-1.204 12.221,-3.932 17.184,-7.816 v -67.194 c -4.963,-3.885 -10.817,-6.612 -17.184,-7.816 z"
   id="path3561"
   inkscape:connector-curvature="0"
   style="fill:#ec0064" />
</g>
<path
   d="m 132.90308,277.8936 c 5.34148,1.68143 10.83865,2.98071 16.46603,3.85539 h 32.18761 V 77.790365 H 132.90308 V 277.8936 z"
   id="path3563"
   inkscape:connector-curvature="0"
   style="fill:#54c0d7" />
<path
   d="m 77.990817,239.66251 c 12.81162,15.8914 29.535253,28.29543 48.653633,35.60424 V 121.13931 H 77.990817 v 118.5232 z"
   id="path3565"
   inkscape:connector-curvature="0"
   style="fill:#f7931e" />
<g
   id="g3589"
   transform="matrix(2.8306751,0,0,2.8306751,-952.72874,-805.32087)">
	<g
   id="g3591">
		<path
   d="M 386.762,400.443 C 371.15,398.654 357.73,390.5 348.752,378.868 l 0,0 c -8.99,-11.634 -13.615,-26.813 -11.783,-42.713 l 0,0 c 1.832,-15.899 9.784,-29.63 21.187,-38.913 l 0,0 c 11.385,-9.289 26.309,-14.177 41.919,-12.374 l 0,0 c 15.615,1.794 29.033,9.945 38.012,21.581 l 0,0 c 8.99,11.632 13.615,26.814 11.785,42.711 l 0,0 c -1.832,15.9 -9.79,29.633 -21.187,38.916 l 0,0 c -11.385,9.283 -26.298,14.17 -41.905,12.371 l 0,0 c -0.005,0 -0.007,0 -0.018,-0.004 l 0,0 z M 365.05,305.704 c -9.251,7.54 -15.736,18.677 -17.239,31.701 l 0,0 c -1.499,13.018 2.285,25.337 9.58,34.787 l 0,0 c 7.305,9.447 18.05,15.958 30.62,17.408 l 0,0 c 12.569,1.447 24.515,-2.451 33.774,-9.988 l 0,0 c 9.256,-7.543 15.74,-18.683 17.239,-31.699 l 0,0 c 1.499,-13.022 -2.278,-25.342 -9.577,-34.791 l 0,0 c -7.307,-9.446 -18.05,-15.959 -30.618,-17.408 l 0,0 c -12.572,-1.446 -24.512,2.452 -33.779,9.99 l 0,0 z"
   id="path3593"
   inkscape:connector-curvature="0" />
	</g>
</g>
<g
   id="g3595"
   transform="matrix(2.8306751,0,0,2.8306751,-952.72874,-805.32087)">
	<path
   d="m 498.599,410.486 -53.663,-37.837 c -1.101,1.852 -2.313,3.733 -3.642,5.614 -1.893,2.682 -3.855,5.157 -5.833,7.382 l 53.866,37.987 c 1.948,1.371 4.042,-0.602 6.05,-3.439 l 2.013,-2.859 c 2.001,-2.838 3.153,-5.475 1.209,-6.848 z"
   id="path3597"
   inkscape:connector-curvature="0" />
</g>
</svg>
