<?xml version="1.0" encoding="UTF-8" standalone="no"?>
<!-- Generator: Adobe Illustrator 13.0.0, SVG Export Plug-In . SVG Version: 6.00 Build 14948)  -->

<svg
   xmlns:dc="http://purl.org/dc/elements/1.1/"
   xmlns:cc="http://creativecommons.org/ns#"
   xmlns:rdf="http://www.w3.org/1999/02/22-rdf-syntax-ns#"
   xmlns:svg="http://www.w3.org/2000/svg"
   xmlns="http://www.w3.org/2000/svg"
   xmlns:sodipodi="http://sodipodi.sourceforge.net/DTD/sodipodi-0.dtd"
   xmlns:inkscape="http://www.inkscape.org/namespaces/inkscape"
   version="1.1"
   id="Layer_1"
   x="0px"
   y="0px"
   width="1007.8931"
   height="395.10565"
   viewBox="0 0 1007.8931 395.10565"
   enable-background="new 0 0 1024 768"
   xml:space="preserve"
   inkscape:version="0.48.3.1 r9886"
   sodipodi:docname="logo.svg"><metadata
   id="metadata3603"><rdf:RDF><cc:Work
       rdf:about=""><dc:format>image/svg+xml</dc:format><dc:type
         rdf:resource="http://purl.org/dc/dcmitype/StillImage" /></cc:Work></rdf:RDF></metadata><defs
   id="defs3601" /><sodipodi:namedview
   pagecolor="#ffffff"
   bordercolor="#666666"
   borderopacity="1"
   objecttolerance="10"
   gridtolerance="10"
   guidetolerance="10"
   inkscape:pageopacity="0"
   inkscape:pageshadow="2"
   inkscape:window-width="1374"
   inkscape:window-height="914"
   id="namedview3599"
   showgrid="false"
   fit-margin-top="0"
   fit-margin-left="0"
   fit-margin-right="0"
   fit-margin-bottom="0"
   inkscape:zoom="0.43457604"
   inkscape:cx="1053.1269"
   inkscape:cy="-234.08737"
   inkscape:window-x="218"
   inkscape:window-y="97"
   inkscape:window-maximized="0"
   inkscape:current-layer="Layer_1" />
<g
   id="g3559"
   transform="matrix(2.8306751,0,0,2.8306751,-952.72874,-805.32087)">
	<path
   d="m 402.81,301.248 v 82.826 c 6.367,-1.204 12.221,-3.932 17.184,-7.816 v -67.194 c -4.963,-3.885 -10.817,-6.612 -17.184,-7.816 z"
   id="path3561"
   inkscape:connector-curvature="0"
   style="fill:#ec0064" />
</g>
<path
   d="m 132.90308,277.8936 c 5.34148,1.68143 10.83865,2.98071 16.46603,3.85539 h 32.18761 V 77.790365 H 132.90308 V 277.8936 z"
   id="path3563"
   inkscape:connector-curvature="0"
   style="fill:#54c0d7" />
<path
   d="m 77.990817,239.66251 c 12.81162,15.8914 29.535253,28.29543 48.653633,35.60424 V 121.13931 H 77.990817 v 118.5232 z"
   id="path3565"
   inkscape:connector-curvature="0"
   style="fill:#f7931e" />
<g
   id="g3567"
   transform="matrix(2.8306751,0,0,2.8306751,-952.72874,-805.32087)">
	<path
   d="m 479.715,369.258 h -13.827 v -36.853 h -8.184 v -12.509 h 30.194 v 12.509 h -8.184 v 36.853 z"
   id="path3569"
   inkscape:connector-curvature="0"
   style="fill:#ec0064" />
	<path
   d="m 483.971,369.258 v -34.621 h 11.765 v 4.834 c 1.082,-1.758 2.404,-3.121 3.97,-4.09 1.566,-0.969 3.375,-1.544 5.426,-1.725 v 12.205 h -0.269 c -3.087,0 -5.246,0.582 -6.477,1.741 -1.228,1.162 -1.839,3.229 -1.839,6.205 v 15.451 h -12.576 z"
   id="path3571"
   inkscape:connector-curvature="0"
   style="fill:#ec0064" />
	<path
   d="m 525.073,369.258 v -3.82 c -1.239,1.666 -2.52,2.884 -3.838,3.649 -1.319,0.767 -2.755,1.151 -4.313,1.151 -3.446,0 -6.147,-1.606 -8.097,-4.817 -1.951,-3.212 -2.922,-7.704 -2.922,-13.473 0,-5.815 0.964,-10.317 2.888,-13.506 1.928,-3.189 4.639,-4.785 8.131,-4.785 1.579,0 3.02,0.378 4.329,1.133 1.307,0.755 2.582,1.955 3.821,3.601 v -3.753 h 12.541 v 34.621 h -12.54 z m -6.425,-17.311 c 0,2.457 0.256,4.304 0.761,5.545 0.507,1.238 1.267,1.858 2.283,1.858 1.012,0 1.785,-0.635 2.313,-1.91 0.528,-1.271 0.797,-3.104 0.797,-5.494 0,-2.435 -0.269,-4.289 -0.797,-5.562 -0.528,-1.273 -1.302,-1.91 -2.313,-1.91 -0.992,0 -1.75,0.63 -2.266,1.893 -0.519,1.264 -0.778,3.124 -0.778,5.58 z"
   id="path3573"
   inkscape:connector-curvature="0"
   style="fill:#ec0064" />
	<path
   d="m 560.057,368.715 c -0.901,0.52 -1.876,0.902 -2.922,1.151 -1.049,0.247 -2.238,0.372 -3.567,0.372 -4.463,0 -7.979,-1.629 -10.549,-4.885 -2.569,-3.258 -3.852,-7.725 -3.852,-13.405 0,-5.567 1.321,-10.007 3.969,-13.321 2.65,-3.313 6.171,-4.97 10.565,-4.97 1.218,0 2.351,0.114 3.4,0.339 1.045,0.225 2.03,0.574 2.955,1.047 v 10.616 c -0.425,-0.27 -0.866,-0.468 -1.317,-0.591 -0.448,-0.124 -0.936,-0.186 -1.453,-0.186 -1.307,0 -2.351,0.631 -3.128,1.893 -0.775,1.262 -1.167,2.986 -1.167,5.173 0,2.209 0.359,3.87 1.085,4.987 0.719,1.117 1.789,1.673 3.21,1.673 0.403,0 0.84,-0.063 1.302,-0.187 0.463,-0.125 0.951,-0.299 1.469,-0.522 v 10.816 z"
   id="path3575"
   inkscape:connector-curvature="0"
   style="fill:#ec0064" />
	<path
   d="M 561.945,369.258 V 315.4 h 12.507 v 33.91 l 5.817,-14.673 h 12.745 l -7.473,15.247 8.793,19.374 h -13.491 l -6.392,-17.243 v 17.243 h -12.506 z"
   id="path3577"
   inkscape:connector-curvature="0"
   style="fill:#ec0064" />
</g>
<g
   id="g3579"
   transform="matrix(2.8306751,0,0,2.8306751,-952.72874,-805.32087)">
	<path
   d="m 601.338,368.645 v -23.667 h -4.158 v -10.954 h 4.158 v -10.177 h 12.612 v 10.177 h 4.497 v 10.954 h -4.497 v 23.667 h -12.612 z"
   id="path3581"
   inkscape:connector-curvature="0"
   style="fill:#54c0d7" />
	<path
   d="m 619.149,368.645 v -53.857 h 12.441 v 23.666 c 1.128,-1.735 2.456,-3.036 3.99,-3.905 1.531,-0.867 3.301,-1.301 5.307,-1.301 2.614,0 4.604,0.794 5.969,2.383 1.362,1.589 2.045,3.894 2.045,6.913 v 26.101 H 636.46 v -20.218 c 0,-1.059 -0.203,-1.841 -0.61,-2.349 -0.403,-0.508 -1.014,-0.761 -1.824,-0.761 -0.745,0 -1.335,0.293 -1.776,0.879 -0.438,0.586 -0.658,1.398 -0.658,2.434 v 20.016 h -12.443 z"
   id="path3583"
   inkscape:connector-curvature="0"
   style="fill:#54c0d7" />
	<path
   d="m 650.989,322.191 c 0,-2.119 0.722,-3.893 2.164,-5.326 1.442,-1.431 3.214,-2.146 5.309,-2.146 2.097,0 3.854,0.715 5.274,2.146 1.419,1.433 2.131,3.207 2.131,5.326 0,2.074 -0.717,3.836 -2.148,5.291 -1.432,1.455 -3.184,2.181 -5.257,2.181 -2.095,0 -3.866,-0.721 -5.309,-2.164 -1.443,-1.443 -2.164,-3.211 -2.164,-5.308 z m 1.185,46.454 v -34.62 h 12.542 v 34.62 h -12.542 z"
   id="path3585"
   inkscape:connector-curvature="0"
   style="fill:#54c0d7" />
	<path
   d="m 671.369,356.539 c 1.241,1.06 2.452,1.878 3.635,2.452 1.185,0.575 2.283,0.863 3.297,0.863 0.721,0 1.302,-0.185 1.739,-0.559 0.441,-0.37 0.662,-0.85 0.662,-1.437 0,-0.857 -1.185,-1.825 -3.55,-2.907 -1.332,-0.608 -2.38,-1.127 -3.146,-1.555 -2.186,-1.195 -3.796,-2.542 -4.835,-4.041 -1.037,-1.499 -1.555,-3.239 -1.555,-5.224 0,-3.178 1.195,-5.82 3.584,-7.928 2.39,-2.107 5.443,-3.161 9.162,-3.161 1.85,0 3.726,0.299 5.63,0.896 1.904,0.598 3.95,1.528 6.136,2.79 l -5.038,7.336 c -1.103,-0.766 -2.09,-1.34 -2.956,-1.724 -0.869,-0.382 -1.664,-0.575 -2.385,-0.575 -0.743,0 -1.346,0.164 -1.809,0.49 -0.462,0.327 -0.693,0.75 -0.693,1.268 0,0.947 1.024,1.882 3.076,2.806 1.082,0.496 1.938,0.925 2.57,1.285 2.772,1.532 4.753,3.082 5.948,4.649 1.195,1.566 1.793,3.396 1.793,5.493 0,3.359 -1.217,6.176 -3.651,8.453 -2.435,2.276 -5.467,3.414 -9.095,3.414 -2.344,0 -4.653,-0.405 -6.93,-1.216 -2.277,-0.811 -4.588,-2.052 -6.933,-3.72 l 5.344,-8.148 z"
   id="path3587"
   inkscape:connector-curvature="0"
   style="fill:#54c0d7" />
</g>
<g
   id="g3589"
   transform="matrix(2.8306751,0,0,2.8306751,-952.72874,-805.32087)">
	<g
   id="g3591">
		<path
   d="M 386.762,400.443 C 371.15,398.654 357.73,390.5 348.752,378.868 l 0,0 c -8.99,-11.634 -13.615,-26.813 -11.783,-42.713 l 0,0 c 1.832,-15.899 9.784,-29.63 21.187,-38.913 l 0,0 c 11.385,-9.289 26.309,-14.177 41.919,-12.374 l 0,0 c 15.615,1.794 29.033,9.945 38.012,21.581 l 0,0 c 8.99,11.632 13.615,26.814 11.785,42.711 l 0,0 c -1.832,15.9 -9.79,29.633 -21.187,38.916 l 0,0 c -11.385,9.283 -26.298,14.17 -41.905,12.371 l 0,0 c -0.005,0 -0.007,0 -0.018,-0.004 l 0,0 z M 365.05,305.704 c -9.251,7.54 -15.736,18.677 -17.239,31.701 l 0,0 c -1.499,13.018 2.285,25.337 9.58,34.787 l 0,0 c 7.305,9.447 18.05,15.958 30.62,17.408 l 0,0 c 12.569,1.447 24.515,-2.451 33.774,-9.988 l 0,0 c 9.256,-7.543 15.74,-18.683 17.239,-31.699 l 0,0 c 1.499,-13.022 -2.278,-25.342 -9.577,-34.791 l 0,0 c -7.307,-9.446 -18.05,-15.959 -30.618,-17.408 l 0,0 c -12.572,-1.446 -24.512,2.452 -33.779,9.99 l 0,0 z"
   id="path3593"
   inkscape:connector-curvature="0" />
	</g>
</g>
<g
   id="g3595"
   transform="matrix(2.8306751,0,0,2.8306751,-952.72874,-805.32087)">
	<path
   d="m 498.599,410.486 -53.663,-37.837 c -1.101,1.852 -2.313,3.733 -3.642,5.614 -1.893,2.682 -3.855,5.157 -5.833,7.382 l 53.866,37.987 c 1.948,1.371 4.042,-0.602 6.05,-3.439 l 2.013,-2.859 c 2.001,-2.838 3.153,-5.475 1.209,-6.848 z"
   id="path3597"
   inkscape:connector-curvature="0" />
</g>
</svg>